# xmcd
#
# Track frame offsets:
#	150
#	11705
#	24635
#	35012
#	49325
#	58700
#	71645
#	84552
#	95877
#	109160
#
# Disc length: 1625 seconds
#
# Revision: 2
# Processed by: cddbd v1.4PL0 Copyright (c) Steve Scherf et al.
# Submitted via: EasyCDDAExtractor 5.0.7
#
DISCID=8d06570a
DTITLE=George Strait - #7
DYEAR=1986
DGENRE=Country
TTITLE0=Deep Water
TTITLE1=Nobody In His Right Mind Would've Left Her
TTITLE2=Rhythm Of The Road
TTITLE3=I'm Never Gonna Let You Go
TTITLE4=You Still Get To Me
TTITLE5=Stranger Things Have Happened
TTITLE6=It Ain't Cool To Be Crazy About You
TTITLE7=Why'd You Go and Break My Heart
TTITLE8=My Old Flame Is Burnin' Another Honky Tonk Down
TTITLE9=Cow Town
EXTD=
EXTT0=
EXTT1=
EXTT2=
EXTT3=
EXTT4=
EXTT5=
EXTT6=
EXTT7=
EXTT8=
EXTT9=
PLAYORDER=
